<svg xmlns="http://www.w3.org/2000/svg" xmlns:xlink="http://www.w3.org/1999/xlink" width="64" height="64" viewBox="0 0 64 64">
  <defs>
    <linearGradient id="linear-gradient" x1="0.5" y1="1" x2="0.5" gradientUnits="objectBoundingBox">
      <stop offset="0" stop-color="#20b038"/>
      <stop offset="1" stop-color="#60d66a"/>
    </linearGradient>
  </defs>
  <g id="Group_138510" data-name="Group 138510" transform="translate(-1270 -653)">
    <circle id="Ellipse_5046" data-name="Ellipse 5046" cx="32" cy="32" r="32" transform="translate(1270 653)" fill="url(#linear-gradient)"/>
    <path id="WA_Logo" data-name="WA Logo" d="M2.824,29.847a19.907,19.907,0,1,1,17.249,9.967h-.008a19.9,19.9,0,0,1-9.513-2.422L0,40.159Zm8.822,4.3a16.523,16.523,0,0,0,8.421,2.305h.007A16.543,16.543,0,1,0,6.057,28.7l.393.626-1.671,6.1,6.262-1.642Zm11.676-4.969a28.641,28.641,0,0,1-2.835-1.047c-4.989-2.154-8.248-7.176-8.5-7.508a9.67,9.67,0,0,1-2.031-5.144A5.575,5.575,0,0,1,11.7,11.331a1.827,1.827,0,0,1,1.326-.622c.332,0,.663,0,.953.017.036,0,.073,0,.112,0,.29,0,.651,0,1.007.852.414,1,1.409,3.443,1.533,3.692a.916.916,0,0,1,.041.871,3.392,3.392,0,0,1-.5.83c-.249.29-.522.648-.746.871-.249.248-.508.517-.218,1.015A14.993,14.993,0,0,0,17.978,22.3a13.587,13.587,0,0,0,4,2.468c.5.249.788.207,1.078-.125s1.243-1.452,1.575-1.95.663-.415,1.119-.249,2.9,1.369,3.4,1.618.829.373.953.581a4.157,4.157,0,0,1-.29,2.364c-.415,1.161-2.4,2.222-3.357,2.364a8.141,8.141,0,0,1-1.207.1A6.317,6.317,0,0,1,23.322,29.178Z" transform="translate(1282.192 665.18)" fill="#fff"/>
  </g>
</svg>
